<svg width="516" height="152" viewBox="0 0 516 152" fill="none" xmlns="http://www.w3.org/2000/svg">
<path d="M82.5 6L25 6C14.5066 6 6 14.5066 6 25L6 127C6 137.494 14.5066 146 25 146L82.5 146" stroke="black" stroke-width="12" stroke-linecap="round"/>
<path d="M367.5 6L310 6C299.507 6 291 14.5066 291 25L291 127C291 137.494 299.507 146 310 146L367.5 146" stroke="black" stroke-width="12" stroke-linecap="round"/>
<path d="M472.5 6L415 6C404.507 6 396 14.5066 396 25L396 127C396 137.494 404.507 146 415 146L472.5 146" stroke="black" stroke-width="12" stroke-linecap="round"/>
<path d="M15 70H57C60.3137 70 63 72.6863 63 76C63 79.3137 60.3137 82 57 82H15V70Z" fill="#11D100"/>
<path d="M301 70H343C346.314 70 349 72.6863 349 76C349 79.3137 346.314 82 343 82H301V70Z" fill="#11D100"/>
<path d="M406 70H448C451.314 70 454 72.6863 454 76C454 79.3137 451.314 82 448 82H406V70Z" fill="#11D100"/>
<path d="M107.97 51C110.915 51 113.641 51.3447 116.148 52.034C118.717 52.6607 120.754 53.538 122.258 54.666C123.825 55.794 124.608 57.016 124.608 58.332C124.608 59.0213 124.357 59.648 123.856 60.212C123.417 60.776 122.853 61.058 122.164 61.058C121.537 61.058 121.005 60.9327 120.566 60.682C120.19 60.4313 119.751 60.0553 119.25 59.554C118.435 58.7393 117.652 58.144 116.9 57.768C115.96 57.3293 114.707 56.9847 113.14 56.734C111.636 56.4207 110.007 56.264 108.252 56.264C104.805 56.264 101.641 57.1413 98.758 58.896C95.938 60.6507 93.7133 63.032 92.084 66.04C90.4547 69.048 89.64 72.3693 89.64 76.004C89.64 79.764 90.4233 83.148 91.99 86.156C93.5567 89.164 95.7187 91.5453 98.476 93.3C101.296 94.992 104.492 95.838 108.064 95.838C110.32 95.838 112.106 95.65 113.422 95.274C114.801 94.898 116.148 94.3653 117.464 93.676C117.903 93.4253 118.655 92.8613 119.72 91.984C120.221 91.5453 120.66 91.232 121.036 91.044C121.412 90.7933 121.819 90.668 122.258 90.668C123.01 90.668 123.605 90.9187 124.044 91.42C124.483 91.8587 124.702 92.454 124.702 93.206C124.702 94.2713 123.95 95.4307 122.446 96.684C120.942 97.8747 118.874 98.9087 116.242 99.786C113.61 100.663 110.696 101.102 107.5 101.102C102.925 101.102 98.852 100.037 95.28 97.906C91.708 95.7127 88.9193 92.7047 86.914 88.882C84.9713 85.0593 84 80.7667 84 76.004C84 71.4293 85.0027 67.262 87.008 63.502C89.0133 59.6793 91.8333 56.64 95.468 54.384C99.1027 52.128 103.27 51 107.97 51Z" fill="black"/>
<path d="M179.849 76.098C179.849 80.798 178.815 85.0593 176.747 88.882C174.679 92.7047 171.828 95.7127 168.193 97.906C164.558 100.037 160.516 101.102 156.067 101.102C151.618 101.102 147.576 100.037 143.941 97.906C140.306 95.7127 137.455 92.7047 135.387 88.882C133.319 85.0593 132.285 80.798 132.285 76.098C132.285 71.398 133.319 67.1367 135.387 63.314C137.455 59.4913 140.306 56.4833 143.941 54.29C147.576 52.0967 151.618 51 156.067 51C160.516 51 164.558 52.0967 168.193 54.29C171.828 56.4833 174.679 59.4913 176.747 63.314C178.815 67.1367 179.849 71.398 179.849 76.098ZM174.209 76.098C174.209 72.338 173.426 68.954 171.859 65.946C170.292 62.938 168.099 60.588 165.279 58.896C162.522 57.1413 159.451 56.264 156.067 56.264C152.683 56.264 149.612 57.1413 146.855 58.896C144.098 60.588 141.904 62.938 140.275 65.946C138.708 68.954 137.925 72.338 137.925 76.098C137.925 79.7953 138.708 83.148 140.275 86.156C141.904 89.164 144.098 91.5453 146.855 93.3C149.612 94.992 152.683 95.838 156.067 95.838C159.451 95.838 162.522 94.992 165.279 93.3C168.099 91.608 170.292 89.258 171.859 86.25C173.426 83.242 174.209 79.858 174.209 76.098Z" fill="black"/>
<path d="M245.905 51.752C251.545 51.752 255.681 53.5067 258.313 57.016C261.008 60.4627 262.355 65.0373 262.355 70.74V97.342C262.355 98.1567 262.073 98.846 261.509 99.41C261.008 99.9113 260.35 100.162 259.535 100.162C258.721 100.162 258.031 99.9113 257.467 99.41C256.966 98.846 256.715 98.1567 256.715 97.342V71.022C256.715 66.886 255.713 63.5333 253.707 60.964C251.765 58.332 248.725 57.016 244.589 57.016C241.957 57.016 239.451 57.6427 237.069 58.896C234.751 60.1493 232.871 61.8727 231.429 64.066C229.988 66.1967 229.267 68.5153 229.267 71.022V97.342C229.267 98.1567 228.985 98.846 228.421 99.41C227.92 99.9113 227.262 100.162 226.447 100.162C225.633 100.162 224.943 99.9113 224.379 99.41C223.878 98.846 223.627 98.1567 223.627 97.342V70.74C223.627 66.6667 222.687 63.3767 220.807 60.87C218.927 58.3007 215.982 57.016 211.971 57.016C209.402 57.016 206.958 57.6427 204.639 58.896C202.383 60.1493 200.535 61.8413 199.093 63.972C197.715 66.04 197.025 68.296 197.025 70.74V97.342C197.025 98.1567 196.743 98.846 196.179 99.41C195.678 99.9113 195.02 100.162 194.205 100.162C193.391 100.162 192.701 99.9113 192.137 99.41C191.636 98.846 191.385 98.1567 191.385 97.342V55.23C191.385 54.4153 191.636 53.7573 192.137 53.256C192.701 52.692 193.391 52.41 194.205 52.41C195.02 52.41 195.678 52.692 196.179 53.256C196.743 53.7573 197.025 54.4153 197.025 55.23V60.682C198.717 58.1127 201.005 55.982 203.887 54.29C206.77 52.598 209.809 51.752 213.005 51.752C216.64 51.752 219.773 52.6293 222.405 54.384C225.037 56.1387 226.917 58.708 228.045 62.092C229.361 59.3347 231.774 56.922 235.283 54.854C238.793 52.786 242.333 51.752 245.905 51.752Z" fill="black"/>
<path d="M500.862 54.9367V93.9408C500.862 96.8903 501.405 98.9085 502.492 99.9951C503.578 101.004 505.014 101.509 506.8 101.509C507.265 101.509 507.847 101.431 508.546 101.276C509.245 101.043 509.788 100.927 510.176 100.927C510.875 100.927 511.457 101.237 511.923 101.858C512.466 102.401 512.738 103.061 512.738 103.837C512.738 104.924 512.117 105.855 510.875 106.632C509.633 107.33 508.158 107.68 506.45 107.68C504.355 107.68 502.492 107.485 500.862 107.097C499.232 106.709 497.64 105.545 496.088 103.604C494.613 101.664 493.876 98.5592 493.876 94.2901V54.9367H485.376C484.445 54.9367 483.63 54.6262 482.931 54.0053C482.31 53.3843 482 52.6081 482 51.6767C482 50.7452 482.31 49.969 482.931 49.3481C483.63 48.7271 484.445 48.4166 485.376 48.4166H493.876V35.4929C493.876 34.4838 494.186 33.6688 494.807 33.0479C495.506 32.3493 496.36 32 497.369 32C498.378 32 499.193 32.3493 499.814 33.0479C500.512 33.6688 500.862 34.4838 500.862 35.4929V48.4166H512.505C513.358 48.4166 514.096 48.7659 514.717 49.4645C515.415 50.1631 515.765 50.9393 515.765 51.7931C515.765 52.7245 515.454 53.5007 514.833 54.1217C514.212 54.665 513.436 54.9367 512.505 54.9367H500.862Z" fill="black"/>
</svg>
