<svg width="463" height="174" viewBox="0 0 463 174" fill="none" xmlns="http://www.w3.org/2000/svg">
<path d="M461.5 9.06366C461.535 4.64552 457.982 1.03541 453.564 1.00026L381.566 0.427353C377.148 0.392197 373.538 3.94531 373.502 8.36344C373.467 12.7816 377.02 16.3917 381.439 16.4268L445.437 16.9361L444.927 80.9341C444.892 85.3522 448.445 88.9623 452.863 88.9975C457.282 89.0326 460.892 85.4795 460.927 81.0614L461.5 9.06366ZM123.999 60.5L126.254 52.8242L123.598 52.0442L121.028 53.0722L123.999 60.5ZM267 102.5L264.745 110.176L265.849 110.5L267 110.5L267 102.5ZM358.5 102.5L358.5 110.5L361.776 110.5L364.112 108.202L358.5 102.5ZM6.97077 115.928L126.971 67.9278L121.028 53.0722L1.02851 101.072L6.97077 115.928ZM121.745 68.1758L264.745 110.176L269.254 94.8242L126.254 52.8242L121.745 68.1758ZM267 110.5L358.5 110.5L358.5 94.5L267 94.5L267 110.5ZM364.112 108.202L459.112 14.7017L447.888 3.29832L352.888 96.7983L364.112 108.202Z" fill="#11D100"/>
<path d="M50.2924 130.957C51.1801 130.957 51.8971 131.264 52.4434 131.879C53.058 132.493 53.3653 133.21 53.3653 134.03C53.3653 134.917 53.058 135.634 52.4434 136.181C51.8971 136.727 51.1801 137 50.2924 137H12.7011C11.8134 137 11.0623 136.727 10.4477 136.181C9.90143 135.566 9.62829 134.815 9.62829 133.927V68.3729C9.62829 67.4851 9.90143 66.7681 10.4477 66.2219C11.0623 65.6073 11.8134 65.3 12.7011 65.3H50.2924C51.1801 65.3 51.8971 65.6073 52.4434 66.2219C53.058 66.7681 53.3653 67.4851 53.3653 68.3729C53.3653 69.2606 53.058 69.9776 52.4434 70.5239C51.8971 71.0701 51.1801 71.3433 50.2924 71.3433H16.0813V97.0529H45.6831C46.5709 97.0529 47.2879 97.3601 47.8341 97.9747C48.4487 98.521 48.756 99.238 48.756 100.126C48.756 101.013 48.4487 101.73 47.8341 102.277C47.2879 102.823 46.5709 103.096 45.6831 103.096H16.0813V130.957H50.2924ZM88.4447 83.4299C91.6541 83.4299 94.6245 83.8054 97.356 84.5566C100.156 85.2394 102.375 86.1954 104.014 87.4246C105.721 88.6537 106.575 89.9853 106.575 91.4193C106.575 92.1704 106.301 92.8533 105.755 93.4679C105.277 94.0824 104.663 94.3897 103.911 94.3897C103.229 94.3897 102.648 94.2531 102.17 93.98C101.76 93.7069 101.282 93.2971 100.736 92.7509C99.8484 91.8631 98.9948 91.2144 98.1754 90.8047C97.1511 90.3267 95.7854 89.9511 94.0782 89.678C92.4394 89.3366 90.664 89.1659 88.752 89.1659C84.9962 89.1659 81.5478 90.1219 78.4067 92.0339C75.3338 93.9459 72.9097 96.5407 71.1342 99.8184C69.3588 103.096 68.4711 106.715 68.4711 110.676C68.4711 114.773 69.3247 118.46 71.0318 121.738C72.739 125.016 75.0948 127.611 78.0994 129.523C81.1722 131.366 84.6548 132.288 88.5471 132.288C91.0054 132.288 92.9515 132.083 94.3855 131.674C95.8878 131.264 97.356 130.684 98.79 129.932C99.268 129.659 100.087 129.045 101.248 128.089C101.795 127.611 102.273 127.269 102.682 127.064C103.092 126.791 103.536 126.655 104.014 126.655C104.833 126.655 105.482 126.928 105.96 127.474C106.438 127.952 106.677 128.601 106.677 129.42C106.677 130.581 105.858 131.844 104.219 133.21C102.58 134.508 100.326 135.634 97.4584 136.59C94.5904 137.546 91.4151 138.024 87.9325 138.024C82.9477 138.024 78.5091 136.863 74.6168 134.542C70.7245 132.152 67.6858 128.874 65.5007 124.709C63.3838 120.543 62.3254 115.866 62.3254 110.676C62.3254 105.691 63.418 101.15 65.6031 97.0529C67.7882 92.8874 70.8611 89.5756 74.8217 87.1173C78.7822 84.659 83.3232 83.4299 88.4447 83.4299ZM166.769 110.778C166.769 115.9 165.642 120.543 163.389 124.709C161.135 128.874 158.028 132.152 154.068 134.542C150.107 136.863 145.703 138.024 140.854 138.024C136.006 138.024 131.602 136.863 127.641 134.542C123.681 132.152 120.574 128.874 118.32 124.709C116.067 120.543 114.94 115.9 114.94 110.778C114.94 105.657 116.067 101.013 118.32 96.848C120.574 92.6826 123.681 89.4049 127.641 87.0149C131.602 84.6249 136.006 83.4299 140.854 83.4299C145.703 83.4299 150.107 84.6249 154.068 87.0149C158.028 89.4049 161.135 92.6826 163.389 96.848C165.642 101.013 166.769 105.657 166.769 110.778ZM160.623 110.778C160.623 106.681 159.77 102.994 158.062 99.716C156.355 96.4383 153.965 93.8776 150.892 92.0339C147.888 90.1219 144.542 89.1659 140.854 89.1659C137.167 89.1659 133.821 90.1219 130.816 92.0339C127.812 93.8776 125.422 96.4383 123.646 99.716C121.939 102.994 121.086 106.681 121.086 110.778C121.086 114.807 121.939 118.46 123.646 121.738C125.422 125.016 127.812 127.611 130.816 129.523C133.821 131.366 137.167 132.288 140.854 132.288C144.542 132.288 147.888 131.366 150.892 129.523C153.965 127.679 156.355 125.118 158.062 121.841C159.77 118.563 160.623 114.875 160.623 110.778ZM243.357 65.3C244.177 65.3 244.86 65.6073 245.406 66.2219C246.021 66.7681 246.328 67.4851 246.328 68.3729V133.927C246.328 134.815 246.021 135.566 245.406 136.181C244.791 136.727 244.04 137 243.153 137C242.197 137 241.411 136.727 240.797 136.181C240.182 135.566 239.875 134.815 239.875 133.927V77.5914L215.804 114.056C215.121 114.944 214.336 115.353 213.448 115.285H213.243C212.424 115.285 211.673 114.875 210.99 114.056L186.919 77.3866V133.927C186.919 134.815 186.612 135.566 185.997 136.181C185.451 136.727 184.734 137 183.846 137C182.959 137 182.242 136.727 181.695 136.181C181.149 135.566 180.876 134.815 180.876 133.927V68.3729C180.876 67.5534 181.149 66.8364 181.695 66.2219C182.31 65.6073 183.061 65.3 183.949 65.3C184.427 65.3 184.939 65.4366 185.485 65.7097C186.032 65.9146 186.441 66.2219 186.714 66.6316L213.551 106.886L240.592 66.6316C241.343 65.6073 242.265 65.1634 243.357 65.3ZM308.312 107.808C308.312 108.627 308.005 109.344 307.391 109.959C306.776 110.505 306.059 110.778 305.24 110.778H266.522C266.522 114.875 267.341 118.563 268.98 121.841C270.687 125.05 273.077 127.611 276.15 129.523C279.291 131.366 282.978 132.288 287.212 132.288C290.49 132.288 293.426 131.605 296.021 130.24C298.616 128.874 300.699 127.133 302.269 125.016C303.02 124.401 303.737 124.094 304.42 124.094C305.103 124.094 305.718 124.367 306.264 124.913C306.81 125.46 307.083 126.074 307.083 126.757C307.083 127.508 306.742 128.225 306.059 128.908C303.874 131.571 301.108 133.756 297.762 135.464C294.485 137.171 291.002 138.024 287.315 138.024C282.057 138.024 277.413 136.898 273.384 134.644C269.355 132.391 266.214 129.25 263.961 125.221C261.707 121.124 260.581 116.412 260.581 111.086C260.581 105.486 261.673 100.604 263.858 96.4383C266.112 92.2046 269.082 88.9951 272.77 86.81C276.457 84.5566 280.384 83.4299 284.549 83.4299C288.646 83.4299 292.47 84.3859 296.021 86.2979C299.64 88.2099 302.576 91.0096 304.83 94.697C307.083 98.3844 308.244 102.755 308.312 107.808ZM284.549 89.3707C280.588 89.3707 276.901 90.7364 273.487 93.4679C270.141 96.1993 267.99 100.126 267.034 105.247H301.962V104.428C301.62 101.355 300.596 98.6917 298.889 96.4383C297.182 94.1166 295.031 92.3753 292.436 91.2144C289.909 89.9853 287.28 89.3707 284.549 89.3707ZM365.228 107.808C365.228 108.627 364.921 109.344 364.306 109.959C363.692 110.505 362.975 110.778 362.155 110.778H323.437C323.437 114.875 324.257 118.563 325.896 121.841C327.603 125.05 329.993 127.611 333.066 129.523C336.207 131.366 339.894 132.288 344.128 132.288C347.406 132.288 350.342 131.605 352.937 130.24C355.532 128.874 357.614 127.133 359.185 125.016C359.936 124.401 360.653 124.094 361.336 124.094C362.019 124.094 362.633 124.367 363.18 124.913C363.726 125.46 363.999 126.074 363.999 126.757C363.999 127.508 363.658 128.225 362.975 128.908C360.79 131.571 358.024 133.756 354.678 135.464C351.4 137.171 347.918 138.024 344.23 138.024C338.972 138.024 334.329 136.898 330.3 134.644C326.271 132.391 323.13 129.25 320.877 125.221C318.623 121.124 317.497 116.412 317.497 111.086C317.497 105.486 318.589 100.604 320.774 96.4383C323.028 92.2046 325.998 88.9951 329.686 86.81C333.373 84.5566 337.299 83.4299 341.465 83.4299C345.562 83.4299 349.386 84.3859 352.937 86.2979C356.556 88.2099 359.492 91.0096 361.746 94.697C363.999 98.3844 365.16 102.755 365.228 107.808ZM341.465 89.3707C337.504 89.3707 333.817 90.7364 330.403 93.4679C327.057 96.1993 324.906 100.126 323.95 105.247H358.878V104.428C358.536 101.355 357.512 98.6917 355.805 96.4383C354.098 94.1166 351.947 92.3753 349.352 91.2144C346.825 89.9853 344.196 89.3707 341.465 89.3707ZM388.138 90.5999V124.913C388.138 127.508 388.616 129.284 389.572 130.24C390.528 131.127 391.791 131.571 393.362 131.571C393.771 131.571 394.284 131.503 394.898 131.366C395.513 131.162 395.991 131.059 396.332 131.059C396.947 131.059 397.459 131.332 397.869 131.879C398.347 132.357 398.586 132.937 398.586 133.62C398.586 134.576 398.039 135.395 396.947 136.078C395.854 136.693 394.557 137 393.054 137C391.211 137 389.572 136.829 388.138 136.488C386.704 136.146 385.304 135.122 383.938 133.415C382.641 131.708 381.992 128.976 381.992 125.221V90.5999H374.515C373.695 90.5999 372.978 90.3267 372.364 89.7804C371.818 89.2341 371.544 88.5513 371.544 87.7319C371.544 86.9124 371.818 86.2296 372.364 85.6833C372.978 85.137 373.695 84.8639 374.515 84.8639H381.992V73.4943C381.992 72.6066 382.265 71.8896 382.812 71.3433C383.426 70.7287 384.177 70.4214 385.065 70.4214C385.953 70.4214 386.67 70.7287 387.216 71.3433C387.831 71.8896 388.138 72.6066 388.138 73.4943V84.8639H398.381C399.132 84.8639 399.781 85.1711 400.327 85.7857C400.941 86.4003 401.249 87.0831 401.249 87.8343C401.249 88.6537 400.976 89.3366 400.429 89.8829C399.883 90.3609 399.2 90.5999 398.381 90.5999H388.138Z" fill="black"/>
</svg>
